<?xml version="1.0" encoding="UTF-8" standalone="no"?>
<svg
   xmlns:dc="http://purl.org/dc/elements/1.1/"
   xmlns:cc="http://creativecommons.org/ns#"
   xmlns:rdf="http://www.w3.org/1999/02/22-rdf-syntax-ns#"
   xmlns:svg="http://www.w3.org/2000/svg"
   xmlns="http://www.w3.org/2000/svg"
   viewBox="0 0 687.66669 384.29068"
   height="384.29068"
   width="687.66669"
   xml:space="preserve"
   id="svg2"
   version="1.1"><metadata
     id="metadata8"><rdf:RDF><cc:Work
         rdf:about=""><dc:format>image/svg+xml</dc:format><dc:type
           rdf:resource="http://purl.org/dc/dcmitype/StillImage" /></cc:Work></rdf:RDF></metadata><defs
     id="defs6"><clipPath
       id="clipPath18"
       clipPathUnits="userSpaceOnUse"><path
         id="path16"
         d="M 0,288.218 H 515.75 V 0 H 0 Z" /></clipPath></defs><g
     transform="matrix(1.3333333,0,0,-1.3333333,0,384.29067)"
     id="g10"><g
       id="g12"><g
         clip-path="url(#clipPath18)"
         id="g14"><g
           transform="translate(244.4945,136.6541)"
           id="g20"><path
             id="path22"
             style="fill:#780a28;fill-opacity:1;fill-rule:nonzero;stroke:none"
             d="m 0,0 -0.069,-0.414 c 1.727,-1.314 4.835,-2.763 7.323,-3.109 0.139,-9.188 0.275,-17.962 0.345,-27.081 H 7.323 L -14.439,0 h -16.097 l -0.069,-0.414 c 1.243,-0.691 3.662,-1.727 6.217,-2.28 v -39.448 c -2.003,-0.344 -4.629,-1.865 -6.01,-3.038 l 0.069,-0.415 h 15.407 l 0.069,0.415 c -1.727,1.242 -5.182,2.694 -7.808,3.038 l -0.207,36.615 h 0.277 l 28.945,-40.275 2.697,0.207 v 42.072 c 2.141,0.346 4.835,1.865 6.146,3.109 L 15.13,0 Z m 52.709,-2.141 c 1.797,0.552 3.455,1.174 4.561,1.727 L 57.2,0 H 37.996 l -0.07,-0.414 c 1.105,-0.553 2.902,-1.314 4.905,-1.797 v -41.311 c -1.797,-0.485 -3.594,-1.175 -4.56,-1.658 l 0.069,-0.415 h 19.204 l 0.07,0.415 c -1.175,0.552 -2.969,1.242 -4.905,1.726 z M 40.117,60.506 h -9.785 l -0.047,-0.274 c 1.136,-0.818 3.14,-1.682 4.779,-1.864 0.09,-6.782 0.18,-12.97 0.18,-19.526 H 35.107 L 19.818,60.506 H 10.623 L 10.58,60.232 c 0.863,-0.5 2.409,-1.136 4.002,-1.456 V 32.562 C 13.219,32.38 11.58,31.516 10.67,30.743 l 0.047,-0.274 h 9.827 l 0.047,0.274 c -1.136,0.818 -3.233,1.637 -4.916,1.819 -0.043,8.33 -0.09,16.611 -0.09,24.941 h 0.137 l 19.296,-27.126 1.183,0.092 v 27.899 c 1.413,0.182 3.002,1.091 3.959,1.864 z m 90.265,-19.751 c 2.003,5.642 4.279,11.924 4.869,13.515 h 0.136 l 5.509,-13.515 z m 22.801,-10.012 c -0.773,0.41 -1.866,0.909 -3.049,1.274 l -12.471,28.807 -0.999,-0.137 c -0.684,-1.819 -8.101,-22.526 -10.378,-28.17 -1.136,-0.273 -2.456,-1.091 -3.233,-1.774 l 0.047,-0.274 h 8.875 l 0.046,0.274 c -1.229,0.818 -3.096,1.548 -4.462,1.819 0.504,1.593 1.456,4.232 2.503,7.192 h 11.244 l 3.139,-7.692 c -1.682,-0.365 -3.412,-0.909 -4.232,-1.319 l 0.043,-0.274 h 12.88 z m -44.584,-75.026 -11.606,0.345 v 20.933 h 13.194 l 0.275,1.52 H 96.993 v 19.827 c 1.724,0 7.046,0.207 10.775,0.276 1.936,-3.316 5.941,-8.842 8.29,-11.26 l 0.414,0.069 V 0 H 82.276 l -0.069,-0.414 c 1.035,-0.553 2.971,-1.314 4.904,-1.797 v -41.311 c -1.794,-0.485 -3.591,-1.175 -4.557,-1.658 l 0.069,-0.415 h 34.885 v 13.47 l -0.414,0.07 c -2.349,-2.418 -6.562,-8.636 -8.495,-12.228 M 63.89,59.004 c 1.273,0.319 2.546,0.82 3.366,1.228 l -0.043,0.274 H 55.242 l -0.047,-0.274 c 0.82,-0.455 2.187,-0.954 3.596,-1.273 V 31.926 c -1.272,-0.274 -2.592,-0.82 -3.365,-1.183 l 0.043,-0.274 h 11.97 l 0.043,0.274 c -0.862,0.41 -2.229,0.909 -3.592,1.227 z m 118.767,-95.55 c -3.663,-3.246 -8.154,-4.282 -11.884,-4.282 -9.396,0 -16.441,9.187 -16.441,22.244 0,10.224 4.352,18.377 11.675,18.377 0.967,0 2.002,-0.139 2.969,-0.485 2.211,-4.143 8.015,-13.264 10.848,-16.095 l 0.414,0.068 v 14.162 c -3.661,2.143 -8.635,3.662 -13.334,3.662 -14.922,0 -23.695,-11.467 -23.695,-25.009 0,-12.366 8.498,-22.797 22.867,-22.797 8.704,0 14.575,5.044 16.994,9.672 z m -336.093,24.111 0.416,-0.07 c 2.21,2.281 5.802,7.531 7.737,10.916 l 5.803,-0.208 v -41.588 c -2.28,-0.483 -4.628,-1.243 -5.803,-1.795 l 0.069,-0.415 h 21.761 l 0.07,0.415 c -1.314,0.552 -3.731,1.38 -6.149,1.865 v 41.518 c 1.934,0.139 4.145,0.208 5.803,0.208 1.934,-3.385 5.527,-8.635 7.737,-10.916 l 0.484,0.07 V 0 h -37.928 z m 128.818,43.178 c -1.136,0.818 -3.233,1.637 -4.915,1.819 -0.043,8.33 -0.09,16.611 -0.09,24.941 h 0.137 l 19.295,-27.126 1.183,0.092 v 27.899 c 1.413,0.182 3.002,1.091 3.959,1.864 l -0.043,0.274 h -9.784 l -0.047,-0.274 c 1.136,-0.818 3.139,-1.682 4.778,-1.864 0.09,-6.782 0.18,-12.97 0.18,-19.526 h -0.137 l -15.289,21.664 h -9.194 l -0.043,-0.274 c 0.862,-0.5 2.408,-1.136 4.002,-1.456 V 32.562 c -1.363,-0.182 -3.003,-1.046 -3.913,-1.819 l 0.047,-0.274 h 9.827 z M 98.686,29.741 c 5.556,0 9.105,3.186 10.698,6.054 l -0.23,0.318 c -2.546,-2.276 -5.779,-3.004 -8.418,-3.004 -6.146,0 -11.151,5.507 -11.151,14.29 0,7.6 3.506,13.017 8.832,13.017 0.862,0 1.909,-0.184 2.775,-0.547 1.273,-2.639 4.413,-8.01 5.963,-9.831 l 0.316,0.047 v 9.011 c -2.593,1.365 -5.552,2.138 -8.375,2.138 -9.011,0 -15.2,-6.78 -15.2,-16.338 0,-8.693 5.783,-15.155 14.79,-15.155 M -53.908,59.004 c 1.274,0.319 2.547,0.82 3.367,1.228 l -0.045,0.274 h -11.971 l -0.045,-0.274 c 0.82,-0.455 2.185,-0.954 3.597,-1.273 V 31.926 c -1.275,-0.274 -2.595,-0.82 -3.368,-1.183 l 0.045,-0.274 h 11.969 l 0.046,0.274 c -0.864,0.41 -2.231,0.909 -3.595,1.227 z M -65.215,0 -65.283,-0.414 c 1.658,-1.244 4.489,-2.626 6.7,-3.041 -2.349,-4.421 -5.665,-10.638 -9.326,-17.34 h -0.207 c -4.008,6.564 -8.221,13.749 -10.777,18.101 2.763,0.76 5.388,1.727 6.425,2.28 L -72.538,0 H -94.99 l -0.07,-0.414 c 0.899,-0.553 2.281,-1.244 3.869,-1.866 5.113,-7.944 10.57,-16.65 14.37,-22.867 v -18.238 c -2.279,-0.483 -4.629,-1.243 -5.804,-1.795 l 0.07,-0.415 h 21.761 l 0.069,0.415 c -1.312,0.552 -3.731,1.38 -6.148,1.865 v 20.932 c 3.178,5.942 7.185,13.333 10.707,19.067 1.867,0.483 4.077,1.865 5.113,2.902 L -51.122,0 Z m -23.929,30.333 c 0.639,2.003 6.554,21.708 8.465,28.125 1.183,0.228 2.458,1.093 3.231,1.774 l -0.045,0.274 h -9.011 l -0.045,-0.274 c 1.275,-0.818 3.186,-1.638 4.595,-1.864 -1.183,-4.369 -5.278,-18.843 -6.051,-21.3 h -0.137 c -3.275,7.555 -7.19,16.794 -10.149,23.574 h -1.002 c -1.136,-3.412 -6.78,-19.934 -8.01,-23.483 h -0.135 c -2.549,7.145 -5.325,14.927 -7.554,21.709 1.774,0.318 3.594,0.909 4.459,1.364 l -0.045,0.274 h -12.926 l -0.045,-0.274 c 0.729,-0.408 1.73,-0.865 2.821,-1.228 l 10.696,-28.853 1.183,0.182 c 0.455,1.228 5.234,14.928 8.1,22.754 h 0.137 l 10.241,-22.936 z" /></g></g></g></g></svg>